<?xml version="1.0" encoding="utf-8"?>
<!-- Svg Vector Icons : http://www.onlinewebfonts.com/icon -->
<!DOCTYPE svg PUBLIC "-//W3C//DTD SVG 1.1//EN" "http://www.w3.org/Graphics/SVG/1.1/DTD/svg11.dtd">
<svg version="1.1" xmlns="http://www.w3.org/2000/svg" xmlns:xlink="http://www.w3.org/1999/xlink" x="0px" y="0px" viewBox="0 0 1000 1000" enable-background="new 0 0 1000 1000" xml:space="preserve">
<metadata> Svg Vector Icons : http://www.onlinewebfonts.com/icon </metadata>
<g><g><path d="M905.4,917.8c11.2,26-0.7,56.1-26.7,67.4c-26,11.3-56.1-0.7-67.4-26.7c-49.4-114.3-166.2-188.1-297.6-188.1c-134.4,0-251.9,73.8-299.3,188c-8.2,19.7-27.3,31.6-47.3,31.6c-6.6,0-13.2-1.3-19.6-3.9c-26.2-10.9-38.5-40.9-27.7-67c63.4-152.6,218-251.1,394-251.1C686,667.9,839.7,766,905.4,917.8z M96,297.2c-11.5-20.1-4.6-45.7,15.5-57.2L266,151.2c20.1-11.5,45.7-4.6,57.3,15.5c11.5,20.1,4.6,45.7-15.5,57.2l-154.5,88.7C133.1,324.2,107.5,317.3,96,297.2z M335.7,299c28.8,28.9,28.8,75.7,0,104.5c-28.8,28.8-75.6,28.8-104.5,0c-28.8-28.8-28.8-75.6,0-104.4C260.1,270.1,306.9,270.1,335.7,299z M586.8,48.2c2.1-23.1,22.4-40.1,45.5-38l177.5,16c23.1,2.1,40.1,22.4,38,45.5c-2.1,23.1-22.4,40.1-45.5,38L624.9,93.7C601.8,91.6,584.7,71.2,586.8,48.2z M776.3,297.8c28.8,28.8,28.8,75.6,0,104.4c-28.9,28.9-75.7,28.9-104.5,0c-28.8-28.8-28.8-75.6,0-104.5C700.7,268.9,747.4,268.9,776.3,297.8z"/></g><g></g><g></g><g></g><g></g><g></g><g></g><g></g><g></g><g></g><g></g><g></g><g></g><g></g><g></g><g></g></g>
</svg>