<?xml version="1.0" encoding="utf-8"?>
<svg viewBox="0 0 270 300" xmlns="http://www.w3.org/2000/svg">
  <g transform="matrix(0.1, 0, 0, -0.1, 0, 300)" fill="#000000" stroke="none">
    <path d="M 793.722 1977.579 L 645.74 998.879 L 1980.269 985.426 L 2101.345 1984.305 L 793.722 1977.579 Z M 1918.17 1906.179 C 2010.859 1924.149 1890 1852 1890 1587 C 1890 1389 1887 1325.184 1874 1297.184 C 1865 1279.184 1832.09 1253.726 1788.09 1212.726 C 1722.09 1151.726 1689 1130 1656 1125 C 1633 1121 1458 1120 1265 1122 C 872 1125 730.028 1106.296 792.825 1148.552 C 857.542 1192.099 837 1664 854 1703 C 867 1735 1015 1879 1048 1892 C 1057 1896 1228 1899 1428 1899 C 1717 1900 1880.993 1898.971 1918.17 1906.179 Z"/>
    <path d="M 1470.384 1783.149 C 1466.429 1773.47 1465.112 1674.258 1466.429 1561.736 L 1470.384 1356.051 L 1516.518 1356.051 C 1560.016 1356.051 1562.652 1358.47 1566.607 1400.817 C 1570.561 1438.324 1602.196 1485.511 1612.741 1469.782 C 1615.377 1467.363 1639.103 1439.534 1666.783 1408.076 C 1707.645 1359.68 1723.462 1350.001 1760.369 1350.001 C 1785.414 1350.001 1809.139 1356.051 1813.094 1362.101 C 1818.367 1369.36 1790.686 1412.917 1753.778 1460.103 L 1685.236 1546.007 L 1752.461 1608.922 C 1789.367 1644.01 1815.73 1675.467 1811.776 1680.306 C 1806.503 1685.146 1781.459 1688.776 1757.733 1688.776 C 1722.144 1688.776 1698.418 1676.677 1641.739 1627.071 L 1570.561 1565.365 L 1566.607 1677.887 L 1562.652 1791.618 L 1519.154 1795.248 C 1492.792 1797.668 1474.339 1792.828 1470.384 1783.149 Z" style=""/>
    <path d="M 1055.41 1662.05 C 1021.14 1631.802 1019.821 1626.962 1019.821 1507.181 C 1019.821 1426.117 1025.093 1377.721 1035.638 1368.042 C 1046.183 1358.362 1094.954 1353.522 1170.086 1353.522 C 1280.808 1354.732 1292.67 1357.152 1329.578 1386.19 C 1367.803 1416.438 1369.121 1422.488 1373.076 1530.169 C 1379.667 1689.878 1378.348 1692.297 1220.175 1692.297 C 1101.544 1692.297 1089.682 1689.878 1055.41 1662.05 Z M 1257.081 1522.91 L 1257.081 1450.315 L 1191.175 1450.315 L 1125.271 1450.315 L 1125.271 1522.91 L 1125.271 1595.504 L 1191.175 1595.504 L 1257.081 1595.504 L 1257.081 1522.91 Z" style=""/>
  </g>
</svg>